<svg width="32" height="32" viewBox="0 0 32 32" fill="none" xmlns="http://www.w3.org/2000/svg">
  <path d="M16 2C12.5 2 9.5 4.5 8.5 8C6 8.5 4 11 4 14C4 17.5 6.5 20.5 10 21.5C10.5 25 13 27.5 16 28C19 27.5 21.5 25 22 21.5C25.5 20.5 28 17.5 28 14C28 11 26 8.5 23.5 8C22.5 4.5 19.5 2 16 2Z" fill="#FF7800"/>
  <circle cx="12" cy="12" r="2" fill="#171717"/>
  <circle cx="20" cy="12" r="2" fill="#171717"/>
  <circle cx="16" cy="18" r="2" fill="#171717"/>
  <path d="M10 16L14 14L18 16L22 14" stroke="#171717" stroke-width="2" stroke-linecap="round"/>
</svg>